# AST/ASF file generated using VICON BodyLanguage
# -----------------------------------------------
:version 1.10
:name VICON
:units
  mass 1.0
  length 0.45
  angle deg
:documentation
   .ast/.asf automatically generated from VICON data using
   VICON BodyBuilder and BodyLanguage model FoxedUp or BRILLIANT.MOD
:root
   order TX TY TZ RX RY RZ
   axis XYZ
   position 0 0 0  
   orientation 0 0 0 
:bonedata
  begin
     id 1 
     name lhipjoint
     direction 0.682418 -0.694059 0.22932 
     length 2.25561 
     axis 0 0 0  XYZ
  end
  begin
     id 2 
     name lfemur
     direction 0.34202 -0.939693 0  
     length 6.96448  
     axis 0 0 20  XYZ
    dof rx ry rz
    limits (-160.0 20.0)
           (-70.0 70.0)
           (-60.0 70.0)
  end
  begin
     id 3 
     name ltibia
     direction 0.34202 -0.939693 0   
     length 6.88553   
     axis 0 0 20   XYZ
    dof rx
    limits (-10.0 170.0)
  end
  begin
     id 4 
     name lfoot
     direction 0.0723587 -0.198804 0.977364   
     length 1.88518   
     axis -90 7.62852e-016 20   XYZ
    dof rx rz
    limits (-45.0 90.0)
           (-70.0 20.0)
  end
  begin
     id 5 
     name ltoes
     direction 1.53558e-011 -4.21962e-011 1   
     length 0.952124   
     axis -90 7.62852e-016 20   XYZ
    dof rx
    limits (-90.0 20.0)
  end
  begin
     id 6 
     name rhipjoint
     direction -0.657603 -0.71533 0.236348   
     length 2.18854  
     axis 0 0 0  XYZ 
  end
  begin
     id 7 
     name rfemur
     direction -0.34202 -0.939693 0   
     length 6.86686   
     axis 0 0 -20   XYZ
    dof rx ry rz
    limits (-160.0 20.0)
           (-70.0 70.0)
           (-70.0 60.0)
  end
  begin
     id 8 
     name rtibia
     direction -0.34202 -0.939693 0   
     length 6.59503   
     axis 0 0 -20   XYZ
    dof rx
    limits (-10.0 170.0)
 end
 begin
     id 9 
     name rfoot
     direction -0.101977 -0.280179 0.954516   
     length 1.93723  
     axis -90 -7.62852e-016 -20   XYZ
    dof rx rz
    limits (-45.0 90.0)
           (-20.0 70.0)
  end
  begin
     id 10 
     name rtoes
     direction -1.53564e-011 -4.21897e-011 1   
     length 0.970315   
     axis -90 -7.62852e-016 -20   XYZ
    dof rx
    limits (-90.0 20.0)
  end
  begin
     id 11 
     name lowerback
     direction -0.0339559 0.999421 -0.00235966   
     length 1.88543   
     axis 0 0 0   XYZ
    dof rx ry rz
    limits (-20.0 45.0)
           (-30.0 30.0)
           (-30.0 30.0)
  end
  begin
     id 12 
     name upperback
     direction 0.00401003 0.999739 0.0224689   
     length 1.8856   
     axis 0 0 0   XYZ
    dof rx ry rz
    limits (-20.0 45.0)
           (-30.0 30.0)
           (-30.0 30.0)
  end
  begin
     id 13 
     name thorax
     direction 0.0198619 0.999546 0.0226536   
     length 1.88352   
     axis 0 0 0   XYZ
    dof rx ry rz
    limits (-20.0 45.0)
           (-30.0 30.0)
           (-30.0 30.0)
  end
  begin
     id 14 
     name lowerneck
     direction -0.0461848 0.998632 0.0245198   
     length 1.34895   
     axis 0 0 0   XYZ
    dof rx ry rz
    limits (-20.0 45.0)
           (-30.0 30.0)
           (-30.0 30.0)
  end
  begin
     id 15 
     name upperneck
     direction -0.0180627 0.994724 -0.100984   
     length 1.35214   
     axis 0 0 0   XYZ
    dof rx ry rz
    limits (-20.0 45.0)
           (-30.0 30.0)
           (-30.0 30.0)
  end
  begin
     id 16
     name head
     direction -0.00374772 0.999293 -0.037403  
     length 1.3568  
     axis 0 0 0   XYZ
    dof rx ry rz
    limits (-20.0 45.0)
           (-30.0 30.0)
           (-30.0 30.0)
  end
  begin
     id 17 
     name lclavicle
     direction 0.971773 0.191119 0.138311  
     length 2.84954  
     axis 0 0 0   XYZ
    dof ry rz
    limits (-20.0 10.0)
           (0.0 20.0)
  end
  begin
     id 18 
     name lhumerus
     direction 1 -4.4897e-011 -2.43761e-027   
     length 4.40919   
     axis 180 -30 -90   XYZ
    dof rx ry rz
    limits (-60.0 90.0)
           (-90.0 90.0)
           (-90.0 90.0)
  end
  begin
     id 19
     name lradius
     direction 1 -4.4896e-011 -9.1621e-027   
     length 3.03857   
     axis 180 -30 -90   XYZ
    dof rx
    limits (-10.0 170.0)
  end
  begin
     id 20
     name lwrist
     direction 1 -4.4896e-011 -1.41363e-026   
     length 1.51928   
     axis 1.07133e-014 90 90   XYZ
    dof ry
    limits (-180.0 0.0)
 end
  begin
     id 21 
     name lhand
     direction 1 -4.48978e-011 -2.82725e-026   
     length 0.523208   
     axis 1.80403e-014 90 90   XYZ
    dof rx rz
    limits (-90.0 90.0)
           (-45.0 45.0)
  end
  begin
     id 22 
     name lfingers
     direction 1 -4.48977e-011 -5.6545e-026   
     length 0.421824   
     axis 3.60806e-014 90 90   XYZ
    dof rx
    limits (0.0 90.0)
  end
  begin
     id 23
     name lthumb
     direction 0.707107 -6.34962e-011 0.707107   
     length 0.605657   
     axis -90 45 2.85299e-015   XYZ
    dof rx rz
    limits (-45.0 45.0)
           (-45.0 45.0)
  end
  begin
     id 24 
     name rclavicle
     direction -0.957247 0.24311 0.156766   
     length 3.12406  
     axis 0 0 0   XYZ 
    dof ry rz
    limits (-10.0 20.0)
           (-20.0 0.0)
  end
  begin
     id 25 
     name rhumerus
     direction -1 -4.48964e-011 -1.70632e-027  
     length 4.61969   
     axis 180 30 90   XYZ
    dof rx ry rz
    limits (-90.0 60.0)
           (-90.0 90.0)
           (-90.0 90.0)
  end
  begin
     id 26 
     name rradius
     direction -1 -4.48966e-011 -6.60395e-027   
     length 3.09382   
     axis 180 30 90   XYZ
    dof rx
    limits (-10.0 170.0)
  end
  begin
     id 27 
     name rwrist
     direction -1 -4.48963e-011 -1.41363e-026   
     length 1.54691   
     axis 1.07133e-014 -90 -90   XYZ
    dof ry
    limits (-180.0 0.0)
  end
  begin
     id 28
     name rhand
     direction -1 -4.49013e-011 -2.82725e-026   
     length 0.500896   
     axis 1.80403e-014 -90 -90   XYZ
    dof rx rz
    limits (-90.0 90.0)
           (-45.0 45.0)
  end
  begin
     id 29
     name rfingers
     direction -1 -4.48902e-011 -5.6545e-026   
     length 0.403835   
     axis 3.60806e-014 -90 -90   XYZ
    dof rx
    limits (0.0 90.0)
  end
  begin
     id 30
     name rthumb
     direction -0.707107 -6.34953e-011 0.707107   
     length 0.579829   
     axis -90 -45 -2.85299e-015   XYZ
    dof rx rz
    limits (-45.0 45.0)
           (-45.0 45.0)
  end
:hierarchy
  begin
    root lhipjoint rhipjoint lowerback
    lhipjoint lfemur
    lfemur ltibia
    ltibia lfoot
    lfoot ltoes
    rhipjoint rfemur
    rfemur rtibia
    rtibia rfoot
    rfoot rtoes
    lowerback upperback
    upperback thorax
    thorax lowerneck lclavicle rclavicle
    lowerneck upperneck
    upperneck head
    lclavicle lhumerus
    lhumerus lradius
    lradius lwrist
    lwrist lhand lthumb
    lhand lfingers
    rclavicle rhumerus
    rhumerus rradius
    rradius rwrist
    rwrist rhand rthumb
    rhand rfingers
  end

#!OML:ASF E:\madness\Project 1\Capture day 1\Session 1\Female1.ASF
:FULLY-SPECIFIED
:DEGREES
372
root 10.5043 15.7352 -2.08838 197.352 -60.0556 -196.271
lowerback 9.14867 2.53279 -0.415092
upperback 1.79914 2.9952 -4.4903
thorax -3.03402 1.41134 -4.78373
lowerneck 4.44634 12.898 6.49173
upperneck 12.8606 18.6297 -16.3433
head 5.30276 8.6046 -5.2842
rclavicle -1.08462e-014 7.50412e-015
rhumerus 28.727 -23.2749 -4.61233
rradius 122.445
rwrist -14.0807
rhand -19.1454 -34.719
rfingers 7.12502
rthumb 7.16481 -64.5777
lclavicle -1.08462e-014 7.50412e-015
lhumerus -31.4295 16.681 21.6604
lradius 144.745
lwrist -1.68249
lhand -51.1147 -36.2587
lfingers 7.12502
lthumb -23.6586 -7.69451
rfemur -20.096 15.3076 10.3668
rtibia 41.6106
rfoot -21.4522 -2.99541
rtoes 10.7086
lfemur -45.3474 -5.00099 0.394714
ltibia 87.1688
lfoot 17.5908 -13.587
ltoes 0.901364
373
root 10.5286 15.7577 -2.07268 197.306 -58.5086 -196.476
lowerback 9.60534 2.75559 -0.274793
upperback 1.85427 3.27789 -4.59936
thorax -3.19269 1.54432 -5.03505
lowerneck 4.16915 13.2803 6.68962
upperneck 12.8337 19.2224 -16.828
head 5.48436 8.86774 -5.38671
rclavicle 3.43649e-014 8.21229e-015
rhumerus 31.456 -24.7583 -4.8254
rradius 121.308
rwrist -13.9406
rhand -18.8969 -34.8768
rfingers 7.12502
rthumb 7.40464 -64.7272
lclavicle 3.43649e-014 8.21229e-015
lhumerus -31.9704 18.1856 20.4318
lradius 145.069
lwrist -0.242085
lhand -51.6081 -32.8973
lfingers 7.12502
lthumb -24.1318 -4.39508
rfemur -20.372 16.1263 9.84994
rtibia 41.562
rfoot -20.8703 -3.02565
rtoes 12.4556
lfemur -45.8981 -5.60867 1.20973
ltibia 90.1255
lfoot 18.5534 -14.5002
ltoes -0.374566
374
root 10.5549 15.7783 -2.05888 197.153 -56.9753 -196.602
lowerback 10.1506 2.97029 -0.141875
upperback 1.91222 3.5442 -4.7232
thorax -3.39525 1.66702 -5.30546
lowerneck 4.24116 13.6197 6.95353
upperneck 12.5972 19.7307 -17.3383
head 5.54467 9.12197 -5.54015
rclavicle 6.25675e-014 -6.21202e-015
rhumerus 34.265 -26.1973 -5.42044
rradius 120.263
rwrist -14.4306
rhand -19.0038 -35.4262
rfingers 7.12502
rthumb 7.30148 -65.2802
lclavicle 6.25675e-014 -6.21202e-015
lhumerus -32.3563 19.6515 19.2729
lradius 145.27
lwrist 0.750093
lhand -51.4219 -30.4497
lfingers 7.12502
lthumb -23.9532 -1.92388
rfemur -20.584 16.8766 9.44768
rtibia 41.4984
rfoot -20.1777 -3.12707
rtoes 14.5054
lfemur -46.2524 -6.30386 2.16267
ltibia 92.365
lfoot 19.7608 -17.0765
ltoes -3.82298
375
root 10.5813 15.7969 -2.04838 197.101 -55.4648 -196.859
lowerback 10.7361 3.17476 -0.195216
upperback 1.91902 3.77258 -4.84122
thorax -3.68683 1.76948 -5.46925
lowerneck 5.01085 13.8777 7.3781
upperneck 11.899 20.0832 -18.0108
head 5.36016 9.36782 -5.84096
rclavicle 4.42296e-014 -4.41302e-014
rhumerus 37.0422 -27.6559 -6.22564
rradius 119.371
rwrist -15.7402
rhand -18.6664 -35.8646
rfingers 7.12502
rthumb 7.62711 -65.707
lclavicle 4.42296e-014 -4.41302e-014
lhumerus -32.9736 21.0478 17.8495
lradius 145.65
lwrist 1.78325
lhand -52.0625 -28.5939
lfingers 7.12502
lthumb -24.5674 -0.150211
rfemur -20.7924 17.478 9.03449
rtibia 41.4729
rfoot -19.7528 -3.15634
rtoes 15.4667
lfemur -46.3309 -7.25026 3.096
ltibia 93.6428
lfoot 22.1523 -19.4511
ltoes -4.46999
376
root 10.6146 15.8096 -2.04025 197.214 -54.0672 -197.213
lowerback 11.3004 3.38236 -0.402827
upperback 1.9238 3.98621 -4.92932
thorax -3.9822 1.86567 -5.51516
lowerneck 6.07747 13.9961 7.87839
upperneck 10.765 20.2141 -18.8757
head 4.99311 9.55065 -6.26499
rclavicle 3.10104e-014 -2.54444e-014
rhumerus 39.8735 -29.1707 -7.34039
rradius 118.626
rwrist -17.2059
rhand -17.8906 -36.3964
rfingers 7.12502
rthumb 8.3759 -66.2103
lclavicle 3.10104e-014 -2.54444e-014
lhumerus -33.7072 22.456 16.2475
lradius 146.284
lwrist 3.33696
lhand -52.5736 -25.8181
lfingers 7.12502
lthumb -25.0573 2.55818
rfemur -21.1404 17.9396 8.59517
rtibia 41.5183
rfoot -19.5573 -3.20023
rtoes 15.5417
lfemur -46.3565 -8.50544 4.14403
ltibia 93.8873
lfoot 27.1136 -19.352
ltoes 2.93459
377
root 10.6517 15.8204 -2.03726 197.532 -52.6857 -197.705
lowerback 11.7479 3.61608 -0.787462
upperback 2.01271 4.20484 -5.08228
thorax -4.13282 1.966 -5.52122
lowerneck 4.51757 14.5438 7.86032
upperneck 11.7947 21.0736 -18.2972
head 5.63498 9.84926 -5.84872
rclavicle -2.15184e-014 3.91606e-014
rhumerus 42.6511 -30.736 -8.78829
rradius 118.047
rwrist -18.5635
rhand -17.6842 -37.0303
rfingers 7.12502
rthumb 8.57507 -66.8362
lclavicle -2.15184e-014 3.91606e-014
lhumerus -33.8805 23.8864 14.9581
lradius 146.84
lwrist 4.84384
lhand -53.1552 -23.0823
lfingers 7.12502
lthumb -25.6144 5.21499
rfemur -21.5952 18.3781 8.0187
rtibia 41.6224
rfoot -19.4158 -3.18843
rtoes 16.3771
lfemur -46.1181 -9.89772 5.09237
ltibia 93.0749
lfoot 32.4583 -17.292
ltoes 11.4154
378
root 10.6919 15.8302 -2.04122 198.337 -51.3559 -198.515
lowerback 11.8714 3.8216 -1.49987
upperback 2.11722 4.34371 -5.32812
thorax -4.1143 2.02999 -5.4054
lowerneck 4.55673 14.6995 8.66278
upperneck 11.3234 21.3576 -18.9883
head 5.68925 10.0321 -6.14563
rclavicle -4.80065e-014 9.93923e-016
rhumerus 45.3411 -32.3776 -10.5161
rradius 117.685
rwrist -20.0144
rhand -18.1162 -37.3469
rfingers 7.12502
rthumb 8.15818 -67.1694
lclavicle -4.80065e-014 9.93923e-016
lhumerus -33.681 25.3322 13.8323
lradius 147.289
lwrist 6.18965
lhand -53.8439 -21.3528
lfingers 7.12502
lthumb -26.2739 6.84791
rfemur -22.2829 18.7422 7.11792
rtibia 41.7392
rfoot -19.347 -3.02539
rtoes 17.9847
lfemur -45.8231 -11.2228 5.75473
ltibia 91.2894
lfoot 36.2844 -14.3677
ltoes 22.5963
379
root 10.7388 15.8408 -2.05154 199.367 -50.2418 -199.287
lowerback 11.7837 3.98 -2.23766
upperback 2.05007 4.43297 -5.52992
thorax -4.1713 2.07254 -5.21519
lowerneck 4.80932 14.9117 9.03916
upperneck 10.9697 21.6724 -19.3682
head 5.67125 10.2257 -6.30157
rclavicle 5.58585e-014 -5.38706e-014
rhumerus 48.2139 -33.8171 -12.5966
rradius 117.409
rwrist -21.3854
rhand -17.7563 -37.7356
rfingers 7.12502
rthumb 8.50552 -67.5443
lclavicle 5.58585e-014 -5.38706e-014
lhumerus -33.5481 26.4635 12.8773
lradius 147.672
lwrist 7.43185
lhand -54.5178 -20.4112
lfingers 7.12502
lthumb -26.9189 7.69178
rfemur -23.2293 19.0254 6.16301
rtibia 41.8346
rfoot -19.3344 -2.7978
rtoes 19.1678
lfemur -45.7844 -12.4796 6.5143
ltibia 88.6834
lfoot 36.6102 -19.8354
ltoes 20.0107
380
root 10.7845 15.8519 -2.06574 200.12 -49.3648 -199.644
lowerback 11.7299 4.24861 -2.53369
upperback 1.70553 4.74498 -5.57042
thorax -4.50347 2.22983 -5.15543
lowerneck 6.02723 14.8783 8.96196
upperneck 10.5795 21.569 -19.4251
head 5.32761 10.2619 -6.43298
rclavicle -5.23798e-014 -1.82882e-014
rhumerus 50.4988 -34.7318 -14.1632
rradius 117.186
rwrist -22.3312
rhand -17.1821 -38.1746
rfingers 7.12502
rthumb 9.0596 -67.96
lclavicle -5.23798e-014 -1.82882e-014
lhumerus -32.9864 26.748 12.9219
lradius 147.942
lwrist 8.25864
lhand -55.3539 -19.1367
lfingers 7.12502
lthumb -27.7186 8.8402
rfemur -24.1908 19.3109 5.48994
rtibia 41.8735
rfoot -19.1716 -2.60922
rtoes 19.1555
lfemur -45.6645 -13.7412 7.61503
ltibia 85.2863
lfoot 34.1879 -21.1121
ltoes 13.0005
